<?xml version="1.0" encoding="utf-8"?>
<!-- Generator: Adobe Illustrator 16.0.0, SVG Export Plug-In . SVG Version: 6.00 Build 0)  -->
<!DOCTYPE svg PUBLIC "-//W3C//DTD SVG 1.1//EN" "http://www.w3.org/Graphics/SVG/1.1/DTD/svg11.dtd">
<svg version="1.1" id="Layer_1" xmlns="http://www.w3.org/2000/svg" xmlns:xlink="http://www.w3.org/1999/xlink" x="0px" y="0px"
	 width="151px" height="36px" viewBox="0 0 151 36" enable-background="new 0 0 151 36" xml:space="preserve">
<rect fill="#010202" width="151" height="36"/>
<g>
	<path fill="#2395E0" d="M27.877,26.324c0.001-0.001,0.003-0.002,0.005-0.003c0.199-0.191,0.42-0.363,0.659-0.517
		c0.141-0.131,0.272-0.27,0.432-0.382l0.527-0.466l0.074-0.061c0.064-0.075,0.135-0.146,0.205-0.218
		c0.213-0.299,0.458-0.573,0.742-0.815c0.093-0.133,0.179-0.271,0.286-0.393c0.052-0.08,0.096-0.164,0.152-0.241
		c0.123-0.258,0.262-0.508,0.429-0.739c0.122-0.288,0.261-0.568,0.435-0.828c0.092-0.209,0.195-0.412,0.314-0.605l0.233-0.711
		l0.222-1.258l0.055-0.754l-0.104-2.626l-0.417-1.605l-1.334-2.722l-2.167-2.215l-1.118-0.819c-0.067-0.045-0.137-0.087-0.2-0.135
		l-0.816-0.451c-0.189-0.083-0.368-0.178-0.538-0.283c-0.182-0.068-0.361-0.142-0.527-0.229l-1.333-0.385l-1.315-0.171
		c-0.112,0-0.217-0.01-0.325-0.016h-1.912c-0.278,0.043-0.567,0.073-0.875,0.073c-0.017,0-0.032-0.002-0.048-0.002L18.766,6.88
		l-1.25,0.406L16.5,7.724l-1.016,0.525L14.75,8.771l-0.479,0.395l-0.646,0.688L12.8,10.72l-0.592,0.8l-1.125,1.945l-0.473,1.634
		c-0.014,0.189-0.037,0.378-0.069,0.564v3.241c0.052,0.244,0.091,0.49,0.11,0.739l0.557,1.741l0.958,1.918l0.543,0.814
		c0.148,0.168,0.281,0.347,0.403,0.533l1.429,1.234l1.3,0.871c0.341,0.11,0.647,0.263,0.933,0.437
		c0.329,0.075,0.637,0.179,0.921,0.311l0.945,0.421c0.139,0.04,0.273,0.086,0.404,0.137l0.259,0.063
		c0.223,0.018,0.428,0.061,0.634,0.103c0.007,0,0.014-0.001,0.021-0.001c0.217,0,0.425,0.014,0.628,0.035h1.205l1.667-0.207
		l1.498-0.293c0.233-0.093,0.478-0.172,0.739-0.229l0.68-0.313l1.042-0.625L27.877,26.324z"/>
	<path fill="#A1E367" d="M16.813,17.562l-0.031,0.407h-0.469l-0.354-0.407L15.5,17.187l-0.188-0.249h-0.458l-0.104-0.355
		l-0.333,0.208l-0.604-0.115l-0.417-0.302l-0.125-0.125l-0.167-0.625L13,15.374l-0.25,0.313l-0.5-0.188L12,14.895l-0.146-0.771
		l-0.208-0.229l-0.083-0.646V12.52l0.313-0.458l0.333-0.625l0.521-0.708l0.438-0.563l0.458-0.396L14,9.395l0.271-0.313l0.479-0.167
		l0.542-0.333h0.396l0.25,0.188l0.469,0.167l0.136-0.188l-0.479-0.167l0.542-0.313l0.583-0.104l0.417,0.167l0.125,0.188l0.375-0.063
		l0.333-0.188l0.188,0.063l-0.104,0.646l0.354-0.021L19,8.353l0.563,0.063l0.104,0.521l0.403-0.583l1.201,0.104l0.646,0.458
		l0.229,0.3v0.45L21.5,9.541l-0.083,0.313l-0.938-0.208l0.438-0.521l-0.563-0.188l-0.438,0.375l-0.313,0.313L19.188,9.77
		l-0.625-0.021l-0.625,0.354l-0.271,0.417l0.604,0.271l0.833,0.021l0.542-0.042l0.042-0.625l0.383-0.354l0.763,0.583l0.76-0.271
		l0.094,0.708l0.25,0.563l0.104,0.688l-0.708-0.021l-0.375-0.354l-0.313-0.021l-0.313,0.458l-0.542-0.063l-0.438,0.583l-0.708,0.542
		l-0.313,0.167l-0.146,0.604l-0.917,0.625l-0.146,0.5l-0.542,0.063l-0.177-0.458l-1.073,0.063l-0.75,0.729l0.375,0.787l0.938-0.375
		l0.25,0.104l-0.167,0.438c0,0,0.541,0.104,0.427,0.104s0.094,0.402,0.094,0.402l-0.094,0.531L16.813,17.562z"/>
	<path fill="#A1E367" d="M32.25,14.344l-0.313-0.817l-0.188-0.564c-0.078-0.144-0.148-0.291-0.212-0.441l-0.36-0.537l-0.357-0.637
		c-0.261-0.246-0.485-0.523-0.68-0.82c-0.332-0.234-0.611-0.516-0.864-0.818c-0.161-0.134-0.312-0.277-0.451-0.43l-0.159,0.145
		L28.5,9.695l-0.375,0.104l-0.167,0.25v0.104l0.104,0.229l0.229-0.063l0.104,0.271l0.167,0.125l0.417-0.063l-0.063,0.333
		l-0.583-0.063l-0.375,0.063l-0.292,0.479v-0.479l-0.229-0.167l-0.271-0.188v-0.396l-0.479-0.042l-0.167,0.375l-0.333,0.208
		l-0.292,0.167v0.354l0.167,0.375l0.25-0.104l0.333-0.271l0.042,0.271l0.188,0.208h0.167l0.063,0.271l0.042,0.271l-0.229,0.125
		l-0.375,0.021l-0.438-0.042l-0.083,0.271l-0.042,0.292v0.249l-0.083,0.292l0.333,0.083l0.521-0.063l0.521-0.042l0.208-0.292
		l0.396-0.438l0.188-0.104l0.354,0.021l0.271,0.083l0.354,0.167l0.333,0.167l-0.583,0.083l0.271,0.271l0.542,0.104l0.313-0.271
		l-0.104-0.417l-0.541-0.396l-0.167-0.25l0.583-0.021l0.334,0.417l0.041,0.479l0.042,0.188l0.146,0.167l0.375-0.063l0.167-0.563
		l0.125,0.229l0.042,0.313l0.291,0.167h0.271l0.291,0.354l0.021,0.271l-0.125,0.208l-0.375-0.042l-0.438-0.25l-0.459-0.167
		l-0.25,0.188l-0.125,0.188l-0.438-0.104l-0.354-0.146l-0.417,0.021l0.021-0.375l-0.167-0.25L28,13.485l-0.542,0.042
		c0,0-0.125,0.167-0.292,0.188s-0.5,0-0.5,0l-0.542,0.021l-0.229,0.271v0.458l-0.25,0.208l-0.333,0.167l-0.521,0.271l-0.188,0.499
		l0.167,0.271l-0.167,0.667v0.563l1,1.271h0.5c0,0,0.646-0.042,0.708-0.104s0.604-0.104,0.604-0.104l0.271-0.021l0.292,0.209
		l0.417,0.041l0.229,0.063l-0.083,0.542l0.083,0.542l0.25,0.166l0.25,0.459l0.125,0.416l-0.146,0.354l-0.063,0.5v0.458l0.188,0.271
		l-0.042,0.354l0.083,0.459l0.229,0.271l0.709,0.88l0.036-0.018c0.08-0.082,0.165-0.16,0.253-0.235
		c0.1-0.146,0.202-0.29,0.319-0.424c0.063-0.096,0.118-0.197,0.188-0.289c0.116-0.231,0.228-0.465,0.379-0.675
		c0.135-0.318,0.29-0.628,0.487-0.911c0.057-0.125,0.103-0.256,0.171-0.376l0.217-0.48c0.005-0.014,0.01-0.026,0.015-0.039
		l0.248-1.095l0.125-1.042v-1.875l-0.125-1.271L32.25,14.344z"/>
	<path fill="#9FEA5B" d="M20.188,27.406l-0.656-0.313l-0.719-1.313v-0.625l-0.375-0.531v-0.938h-0.078v-0.609v-0.766v-0.531
		l-0.625-0.328h-0.313l-0.156-0.516l-0.516-0.516l-0.344-0.453v-0.234l0.125-0.516l0.219-0.531l0.344-0.172l0.141-0.109
		l-0.264-0.255l-0.189-0.183h0.203l0.281-0.391l0.422-0.469L18,16.938l0.281,0.109l0.313,0.172l0.203,0.25h0.266l0.266-0.188
		l0.469-0.016l0.172,0.125l0.094,0.266l0.109,0.219l0.203,0.047l0.25,0.063L20.922,18l0.219,0.266v0.297l0.125,0.219l0.125,0.203
		l0.203,0.078l0.172,0.203L22,19.281l0.375,0.094l0.281-0.063l0.313,0.016c0,0,0.188,0.203,0.219,0.25s0.281,0.313,0.281,0.313
		l0.266,0.391l-0.188,0.344l-0.188,0.188l-0.188,0.219l-0.078,0.266l-0.047,0.344v0.297l-0.125,0.234l-0.234,0.156l-0.375,0.188
		l-0.266,0.047l-0.125,0.016l-0.156,0.063l-0.047,0.156l0.078,0.172l0.219,0.172l-0.109,0.156l0.016,0.266l-0.047,0.281
		l-0.156,0.078l-0.125,0.141l-0.234,0.203l-0.094,0.063l-0.141,0.141l-0.094,0.266l-0.156,0.125l-0.172,0.125l-0.313,0.156
		l-0.172,0.031l-0.266,0.016L20,25.375l0.281,0.047l0.016,0.109l-0.141,0.25l-0.219-0.016l0.016,0.141l0.117,0.109L20.344,26
		l0.094,0.109l-0.125,0.188l0.031,0.234L20.188,27.406z"/>
</g>
<text transform="matrix(1 0 0 1 18.062 21.5)"><tspan x="0" y="0" opacity="0.9" fill="#F5F6F7" font-family="'MyriadPro-BoldCondIt'" font-size="12">         </tspan><tspan x="15.336" y="0" opacity="0.9" fill="#F5F6F7" font-family="'BrushScriptMT'" font-size="12">HESABAL</tspan></text>
</svg>
